<svg xmlns="http://www.w3.org/2000/svg" xmlns:xlink="http://www.w3.org/1999/xlink" contentStyleType="text/css" height="238px" preserveAspectRatio="none" style="width:446px;height:238px;background:#FFFFFF;" version="1.1" viewBox="0 0 446 238" width="446px" zoomAndPan="magnify"><defs/><g><line style="stroke:#181818;stroke-width:0.5;stroke-dasharray:5.0,5.0;" x1="32" x2="32" y1="36.2969" y2="203.0938"/><line style="stroke:#181818;stroke-width:0.5;stroke-dasharray:5.0,5.0;" x1="409.4014" x2="409.4014" y1="36.2969" y2="203.0938"/><rect fill="#E2E2F0" height="30.2969" rx="2.5" ry="2.5" style="stroke:#181818;stroke-width:0.5;" width="54.5303" x="5" y="5"/><text fill="#000000" font-family="sans-serif" font-size="14" lengthAdjust="spacing" textLength="40.5303" x="12" y="24.9951">Client</text><rect fill="#E2E2F0" height="30.2969" rx="2.5" ry="2.5" style="stroke:#181818;stroke-width:0.5;" width="54.5303" x="5" y="202.0938"/><text fill="#000000" font-family="sans-serif" font-size="14" lengthAdjust="spacing" textLength="40.5303" x="12" y="222.0889">Client</text><rect fill="#E2E2F0" height="30.2969" rx="2.5" ry="2.5" style="stroke:#181818;stroke-width:0.5;" width="59.9102" x="380.4014" y="5"/><text fill="#000000" font-family="sans-serif" font-size="14" lengthAdjust="spacing" textLength="45.9102" x="387.4014" y="24.9951">Server</text><rect fill="#E2E2F0" height="30.2969" rx="2.5" ry="2.5" style="stroke:#181818;stroke-width:0.5;" width="59.9102" x="380.4014" y="202.0938"/><text fill="#000000" font-family="sans-serif" font-size="14" lengthAdjust="spacing" textLength="45.9102" x="387.4014" y="222.0889">Server</text><polygon fill="#181818" points="398.3564,78.5625,408.3564,82.5625,398.3564,86.5625,402.3564,82.5625" style="stroke:#181818;stroke-width:1.0;"/><line style="stroke:#181818;stroke-width:1.0;" x1="32.2651" x2="404.3564" y1="82.5625" y2="82.5625"/><text fill="#000000" font-family="sans-serif" font-size="13" lengthAdjust="spacing" textLength="94.0786" x="39.2651" y="62.3638">GET /api/users</text><text fill="#000000" font-family="sans-serif" font-size="13" lengthAdjust="spacing" textLength="354.0913" x="39.2651" y="77.4966">Accept: application/vnd.company.api+json; version=1</text><polygon fill="#181818" points="43.2651,107.6953,33.2651,111.6953,43.2651,115.6953,39.2651,111.6953" style="stroke:#181818;stroke-width:1.0;"/><line style="stroke:#181818;stroke-width:1.0;stroke-dasharray:2.0,2.0;" x1="37.2651" x2="409.3564" y1="111.6953" y2="111.6953"/><text fill="#000000" font-family="sans-serif" font-size="13" lengthAdjust="spacing" textLength="222.7202" x="49.2651" y="106.6294">200 OK (User List - API v1 Format)</text><polygon fill="#181818" points="398.3564,151.9609,408.3564,155.9609,398.3564,159.9609,402.3564,155.9609" style="stroke:#181818;stroke-width:1.0;"/><line style="stroke:#181818;stroke-width:1.0;" x1="32.2651" x2="404.3564" y1="155.9609" y2="155.9609"/><text fill="#000000" font-family="sans-serif" font-size="13" lengthAdjust="spacing" textLength="94.0786" x="39.2651" y="135.7622">GET /api/users</text><text fill="#000000" font-family="sans-serif" font-size="13" lengthAdjust="spacing" textLength="354.0913" x="39.2651" y="150.895">Accept: application/vnd.company.api+json; version=2</text><polygon fill="#181818" points="43.2651,181.0938,33.2651,185.0938,43.2651,189.0938,39.2651,185.0938" style="stroke:#181818;stroke-width:1.0;"/><line style="stroke:#181818;stroke-width:1.0;stroke-dasharray:2.0,2.0;" x1="37.2651" x2="409.3564" y1="185.0938" y2="185.0938"/><text fill="#000000" font-family="sans-serif" font-size="13" lengthAdjust="spacing" textLength="222.7202" x="49.2651" y="180.0278">200 OK (User List - API v2 Format)</text><!--SRC=[jOwn2i8m68JtFiMDYhHfCqOKIb0H1GLrSmanGwJz4v8OyEqDYW_Wu7ntttroi8OIwYLE9cGJ13QhCvZobZsY2V5AlTR69m7b_M2rIjOHotHhj1kzecTJghDxT3H7cSUIBhhgmq9TiF9z8C3R5eST9fT2nTx6yed-k4Nki7PXL6bQoJ-uy9zS-DVb1G00]--></g></svg>