<svg xmlns="http://www.w3.org/2000/svg" xmlns:xlink="http://www.w3.org/1999/xlink" contentStyleType="text/css" height="493px" preserveAspectRatio="none" style="width:313px;height:493px;background:#FFFFFF;" version="1.1" viewBox="0 0 313 493" width="313px" zoomAndPan="magnify"><defs/><g><line style="stroke:#181818;stroke-width:0.5;stroke-dasharray:5.0,5.0;" x1="28" x2="28" y1="81.2969" y2="412.2891"/><line style="stroke:#181818;stroke-width:0.5;stroke-dasharray:5.0,5.0;" x1="263.978" x2="263.978" y1="81.2969" y2="412.2891"/><text fill="#000000" font-family="sans-serif" font-size="14" lengthAdjust="spacing" textLength="40.5303" x="5" y="77.9951">Client</text><ellipse cx="28.2651" cy="13.5" fill="#E2E2F0" rx="8" ry="8" style="stroke:#181818;stroke-width:0.5;"/><path d="M28.2651,21.5 L28.2651,48.5 M15.2651,29.5 L41.2651,29.5 M28.2651,48.5 L15.2651,63.5 M28.2651,48.5 L41.2651,63.5 " fill="none" style="stroke:#181818;stroke-width:0.5;"/><text fill="#000000" font-family="sans-serif" font-size="14" lengthAdjust="spacing" textLength="40.5303" x="5" y="424.2842">Client</text><ellipse cx="28.2651" cy="436.0859" fill="#E2E2F0" rx="8" ry="8" style="stroke:#181818;stroke-width:0.5;"/><path d="M28.2651,444.0859 L28.2651,471.0859 M15.2651,452.0859 L41.2651,452.0859 M28.2651,471.0859 L15.2651,486.0859 M28.2651,471.0859 L41.2651,486.0859 " fill="none" style="stroke:#181818;stroke-width:0.5;"/><rect fill="#E2E2F0" height="30.2969" rx="2.5" ry="2.5" style="stroke:#181818;stroke-width:0.5;" width="86.5088" x="220.978" y="50"/><text fill="#000000" font-family="sans-serif" font-size="14" lengthAdjust="spacing" textLength="72.5088" x="227.978" y="69.9951">API Server</text><rect fill="#E2E2F0" height="30.2969" rx="2.5" ry="2.5" style="stroke:#181818;stroke-width:0.5;" width="86.5088" x="220.978" y="411.2891"/><text fill="#000000" font-family="sans-serif" font-size="14" lengthAdjust="spacing" textLength="72.5088" x="227.978" y="431.2842">API Server</text><polygon fill="#181818" points="252.2324,123.5625,262.2324,127.5625,252.2324,131.5625,256.2324,127.5625" style="stroke:#181818;stroke-width:1.0;"/><line style="stroke:#181818;stroke-width:1.0;" x1="28.2651" x2="258.2324" y1="127.5625" y2="127.5625"/><text fill="#000000" font-family="sans-serif" font-size="13" lengthAdjust="spacing" textLength="123.2715" x="35.2651" y="107.3638">GET /api/users/123</text><text fill="#000000" font-family="sans-serif" font-size="13" lengthAdjust="spacing" textLength="155.7144" x="35.2651" y="122.4966">Accept: application/json</text><polygon fill="#181818" points="39.2651,182.9609,29.2651,186.9609,39.2651,190.9609,35.2651,186.9609" style="stroke:#181818;stroke-width:1.0;"/><line style="stroke:#181818;stroke-width:1.0;stroke-dasharray:2.0,2.0;" x1="33.2651" x2="263.2324" y1="186.9609" y2="186.9609"/><text fill="#000000" font-family="sans-serif" font-size="13" lengthAdjust="spacing" textLength="110.3857" x="45.2651" y="151.6294">HTTP/1.1 200 OK</text><text fill="#000000" font-family="sans-serif" font-size="13" lengthAdjust="spacing" textLength="199.4561" x="45.2651" y="166.7622">Content-Type: application/json</text><text fill="#000000" font-family="sans-serif" font-size="13" lengthAdjust="spacing" textLength="81.999" x="45.2651" y="181.895">{JSON data}</text><polygon fill="#181818" points="252.2324,227.2266,262.2324,231.2266,252.2324,235.2266,256.2324,231.2266" style="stroke:#181818;stroke-width:1.0;"/><line style="stroke:#181818;stroke-width:1.0;" x1="28.2651" x2="258.2324" y1="231.2266" y2="231.2266"/><text fill="#000000" font-family="sans-serif" font-size="13" lengthAdjust="spacing" textLength="123.2715" x="35.2651" y="211.0278">GET /api/users/123</text><text fill="#000000" font-family="sans-serif" font-size="13" lengthAdjust="spacing" textLength="153.1055" x="35.2651" y="226.1606">Accept: application/xml</text><polygon fill="#181818" points="39.2651,286.625,29.2651,290.625,39.2651,294.625,35.2651,290.625" style="stroke:#181818;stroke-width:1.0;"/><line style="stroke:#181818;stroke-width:1.0;stroke-dasharray:2.0,2.0;" x1="33.2651" x2="263.2324" y1="290.625" y2="290.625"/><text fill="#000000" font-family="sans-serif" font-size="13" lengthAdjust="spacing" textLength="110.3857" x="45.2651" y="255.2935">HTTP/1.1 200 OK</text><text fill="#000000" font-family="sans-serif" font-size="13" lengthAdjust="spacing" textLength="196.8472" x="45.2651" y="270.4263">Content-Type: application/xml</text><text fill="#000000" font-family="sans-serif" font-size="13" lengthAdjust="spacing" textLength="82.564" x="45.2651" y="285.5591">&lt;XML data&gt;</text><polygon fill="#181818" points="252.2324,330.8906,262.2324,334.8906,252.2324,338.8906,256.2324,334.8906" style="stroke:#181818;stroke-width:1.0;"/><line style="stroke:#181818;stroke-width:1.0;" x1="28.2651" x2="258.2324" y1="334.8906" y2="334.8906"/><text fill="#000000" font-family="sans-serif" font-size="13" lengthAdjust="spacing" textLength="123.2715" x="35.2651" y="314.6919">GET /api/users/123</text><text fill="#000000" font-family="sans-serif" font-size="13" lengthAdjust="spacing" textLength="161.0718" x="35.2651" y="329.8247">Accept: application/yaml</text><polygon fill="#181818" points="39.2651,390.2891,29.2651,394.2891,39.2651,398.2891,35.2651,394.2891" style="stroke:#181818;stroke-width:1.0;"/><line style="stroke:#181818;stroke-width:1.0;stroke-dasharray:2.0,2.0;" x1="33.2651" x2="263.2324" y1="394.2891" y2="394.2891"/><text fill="#000000" font-family="sans-serif" font-size="13" lengthAdjust="spacing" textLength="190.8994" x="45.2651" y="358.9575">HTTP/1.1 406 Not Acceptable</text><text fill="#000000" font-family="sans-serif" font-size="13" lengthAdjust="spacing" textLength="199.4561" x="45.2651" y="374.0903">Content-Type: application/json</text><text fill="#000000" font-family="sans-serif" font-size="13" lengthAdjust="spacing" textLength="211.9673" x="45.2651" y="389.2231">{"error": "YAML not supported"}</text><!--SRC=[fP1DIyD048Rl-HN3tkCcLJm4AOGYrg-sq1mKSXctSzWIPuVTgLYa_zt5zEP18RTXvdrU7WQTXWYBmHDh8HZLEo_82gRTtCEMuWT50vZEOr6CKIZdvqq3TxSTM1Hl3ubYilNiikVMEH9j04K6xr1zOBjFWOiHWZBpOrC3owxRsFgYXbbLmVgnvqLWpPUoEmhzhkZvws6xNi4E5KzJV3xVXuawkQ7dcvVdfn-P-HIP8_vXSrLTmoeeZ32-3VIFHncACKJJW7bjioLdFXr4GbJQcTCt]--></g></svg>