<svg xmlns="http://www.w3.org/2000/svg" xmlns:xlink="http://www.w3.org/1999/xlink" contentStyleType="text/css" height="531px" preserveAspectRatio="none" style="width:659px;height:531px;background:#FFFFFF;" version="1.1" viewBox="0 0 659 531" width="659px" zoomAndPan="magnify"><defs/><g><line style="stroke:#181818;stroke-width:0.5;stroke-dasharray:5.0,5.0;" x1="28" x2="28" y1="81.2969" y2="450.8906"/><line style="stroke:#181818;stroke-width:0.5;stroke-dasharray:5.0,5.0;" x1="330.0127" x2="330.0127" y1="81.2969" y2="450.8906"/><line style="stroke:#181818;stroke-width:0.5;stroke-dasharray:5.0,5.0;" x1="622.0615" x2="622.0615" y1="81.2969" y2="450.8906"/><text fill="#000000" font-family="sans-serif" font-size="14" lengthAdjust="spacing" textLength="40.5303" x="5" y="77.9951">Client</text><ellipse cx="28.2651" cy="13.5" fill="#E2E2F0" rx="8" ry="8" style="stroke:#181818;stroke-width:0.5;"/><path d="M28.2651,21.5 L28.2651,48.5 M15.2651,29.5 L41.2651,29.5 M28.2651,48.5 L15.2651,63.5 M28.2651,48.5 L41.2651,63.5 " fill="none" style="stroke:#181818;stroke-width:0.5;"/><text fill="#000000" font-family="sans-serif" font-size="14" lengthAdjust="spacing" textLength="40.5303" x="5" y="462.8857">Client</text><ellipse cx="28.2651" cy="474.6875" fill="#E2E2F0" rx="8" ry="8" style="stroke:#181818;stroke-width:0.5;"/><path d="M28.2651,482.6875 L28.2651,509.6875 M15.2651,490.6875 L41.2651,490.6875 M28.2651,509.6875 L15.2651,524.6875 M28.2651,509.6875 L41.2651,524.6875 " fill="none" style="stroke:#181818;stroke-width:0.5;"/><rect fill="#E2E2F0" height="30.2969" rx="2.5" ry="2.5" style="stroke:#181818;stroke-width:0.5;" width="86.5088" x="287.0127" y="50"/><text fill="#000000" font-family="sans-serif" font-size="14" lengthAdjust="spacing" textLength="72.5088" x="294.0127" y="69.9951">API Server</text><rect fill="#E2E2F0" height="30.2969" rx="2.5" ry="2.5" style="stroke:#181818;stroke-width:0.5;" width="86.5088" x="287.0127" y="449.8906"/><text fill="#000000" font-family="sans-serif" font-size="14" lengthAdjust="spacing" textLength="72.5088" x="294.0127" y="469.8857">API Server</text><text fill="#000000" font-family="sans-serif" font-size="14" lengthAdjust="spacing" textLength="66.8008" x="586.0615" y="77.9951">Database</text><path d="M604.4619,29 C604.4619,19 622.4619,19 622.4619,19 C622.4619,19 640.4619,19 640.4619,29 L640.4619,55 C640.4619,65 622.4619,65 622.4619,65 C622.4619,65 604.4619,65 604.4619,55 L604.4619,29 " fill="#E2E2F0" style="stroke:#181818;stroke-width:1.5;"/><path d="M604.4619,29 C604.4619,39 622.4619,39 622.4619,39 C622.4619,39 640.4619,39 640.4619,29 " fill="none" style="stroke:#181818;stroke-width:1.5;"/><text fill="#000000" font-family="sans-serif" font-size="14" lengthAdjust="spacing" textLength="66.8008" x="586.0615" y="462.8857">Database</text><path d="M604.4619,476.1875 C604.4619,466.1875 622.4619,466.1875 622.4619,466.1875 C622.4619,466.1875 640.4619,466.1875 640.4619,476.1875 L640.4619,502.1875 C640.4619,512.1875 622.4619,512.1875 622.4619,512.1875 C622.4619,512.1875 604.4619,512.1875 604.4619,502.1875 L604.4619,476.1875 " fill="#E2E2F0" style="stroke:#181818;stroke-width:1.5;"/><path d="M604.4619,476.1875 C604.4619,486.1875 622.4619,486.1875 622.4619,486.1875 C622.4619,486.1875 640.4619,486.1875 640.4619,476.1875 " fill="none" style="stroke:#181818;stroke-width:1.5;"/><polygon fill="#181818" points="318.2671,108.4297,328.2671,112.4297,318.2671,116.4297,322.2671,112.4297" style="stroke:#181818;stroke-width:1.0;"/><line style="stroke:#181818;stroke-width:1.0;" x1="28.2651" x2="324.2671" y1="112.4297" y2="112.4297"/><text fill="#000000" font-family="sans-serif" font-size="13" lengthAdjust="spacing" textLength="223.2852" x="35.2651" y="107.3638">GET /api/users?limit=20&amp;offset=0</text><polygon fill="#181818" points="610.4619,137.5625,620.4619,141.5625,610.4619,145.5625,614.4619,141.5625" style="stroke:#181818;stroke-width:1.0;"/><line style="stroke:#181818;stroke-width:1.0;" x1="330.2671" x2="616.4619" y1="141.5625" y2="141.5625"/><text fill="#000000" font-family="sans-serif" font-size="13" lengthAdjust="spacing" textLength="199.9575" x="337.2671" y="136.4966">Query users (limit 20, offset 0)</text><polygon fill="#181818" points="341.2671,166.6953,331.2671,170.6953,341.2671,174.6953,337.2671,170.6953" style="stroke:#181818;stroke-width:1.0;"/><line style="stroke:#181818;stroke-width:1.0;stroke-dasharray:2.0,2.0;" x1="335.2671" x2="621.4619" y1="170.6953" y2="170.6953"/><text fill="#000000" font-family="sans-serif" font-size="13" lengthAdjust="spacing" textLength="133.4214" x="347.2671" y="165.6294">Return first 20 users</text><polygon fill="#181818" points="39.2651,195.8281,29.2651,199.8281,39.2651,203.8281,35.2651,199.8281" style="stroke:#181818;stroke-width:1.0;"/><line style="stroke:#181818;stroke-width:1.0;stroke-dasharray:2.0,2.0;" x1="33.2651" x2="329.2671" y1="199.8281" y2="199.8281"/><text fill="#000000" font-family="sans-serif" font-size="13" lengthAdjust="spacing" textLength="132.0186" x="45.2651" y="194.7622">200 OK (Users 1-20)</text><polygon fill="#181818" points="318.2671,224.9609,328.2671,228.9609,318.2671,232.9609,322.2671,228.9609" style="stroke:#181818;stroke-width:1.0;"/><line style="stroke:#181818;stroke-width:1.0;" x1="28.2651" x2="324.2671" y1="228.9609" y2="228.9609"/><text fill="#000000" font-family="sans-serif" font-size="13" lengthAdjust="spacing" textLength="231.5562" x="35.2651" y="223.895">GET /api/users?limit=20&amp;offset=20</text><polygon fill="#181818" points="610.4619,254.0938,620.4619,258.0938,610.4619,262.0938,614.4619,258.0938" style="stroke:#181818;stroke-width:1.0;"/><line style="stroke:#181818;stroke-width:1.0;" x1="330.2671" x2="616.4619" y1="258.0938" y2="258.0938"/><text fill="#000000" font-family="sans-serif" font-size="13" lengthAdjust="spacing" textLength="208.2285" x="337.2671" y="253.0278">Query users (limit 20, offset 20)</text><polygon fill="#181818" points="341.2671,283.2266,331.2671,287.2266,341.2671,291.2266,337.2671,287.2266" style="stroke:#181818;stroke-width:1.0;"/><line style="stroke:#181818;stroke-width:1.0;stroke-dasharray:2.0,2.0;" x1="335.2671" x2="621.4619" y1="287.2266" y2="287.2266"/><text fill="#000000" font-family="sans-serif" font-size="13" lengthAdjust="spacing" textLength="137.0459" x="347.2671" y="282.1606">Return next 20 users</text><polygon fill="#181818" points="39.2651,312.3594,29.2651,316.3594,39.2651,320.3594,35.2651,316.3594" style="stroke:#181818;stroke-width:1.0;"/><line style="stroke:#181818;stroke-width:1.0;stroke-dasharray:2.0,2.0;" x1="33.2651" x2="329.2671" y1="316.3594" y2="316.3594"/><text fill="#000000" font-family="sans-serif" font-size="13" lengthAdjust="spacing" textLength="140.2896" x="45.2651" y="311.2935">200 OK (Users 21-40)</text><polygon fill="#181818" points="318.2671,341.4922,328.2671,345.4922,318.2671,349.4922,322.2671,345.4922" style="stroke:#181818;stroke-width:1.0;"/><line style="stroke:#181818;stroke-width:1.0;" x1="28.2651" x2="324.2671" y1="345.4922" y2="345.4922"/><text fill="#000000" font-family="sans-serif" font-size="13" lengthAdjust="spacing" textLength="278.002" x="35.2651" y="340.4263">GET /api/users?status=active&amp;role=admin</text><polygon fill="#181818" points="610.4619,370.625,620.4619,374.625,610.4619,378.625,614.4619,374.625" style="stroke:#181818;stroke-width:1.0;"/><line style="stroke:#181818;stroke-width:1.0;" x1="330.2671" x2="616.4619" y1="374.625" y2="374.625"/><text fill="#000000" font-family="sans-serif" font-size="13" lengthAdjust="spacing" textLength="268.1948" x="337.2671" y="369.5591">Query users (status=active, role=admin)</text><polygon fill="#181818" points="341.2671,399.7578,331.2671,403.7578,341.2671,407.7578,337.2671,403.7578" style="stroke:#181818;stroke-width:1.0;"/><line style="stroke:#181818;stroke-width:1.0;stroke-dasharray:2.0,2.0;" x1="335.2671" x2="621.4619" y1="403.7578" y2="403.7578"/><text fill="#000000" font-family="sans-serif" font-size="13" lengthAdjust="spacing" textLength="148.5605" x="347.2671" y="398.6919">Return matching users</text><polygon fill="#181818" points="39.2651,428.8906,29.2651,432.8906,39.2651,436.8906,35.2651,432.8906" style="stroke:#181818;stroke-width:1.0;"/><line style="stroke:#181818;stroke-width:1.0;stroke-dasharray:2.0,2.0;" x1="33.2651" x2="329.2671" y1="432.8906" y2="432.8906"/><text fill="#000000" font-family="sans-serif" font-size="13" lengthAdjust="spacing" textLength="186.5449" x="45.2651" y="427.8247">200 OK (Active admin users)</text><!--SRC=[bOxTIiD044Rlzoc6N9GM6fekNWMYD8s8UE7_0upfn0uacx0xAVhsfhl1dukgkHkOynqEbj9QsDPCHbI7LhZa3er0jBcxXaUo1x8He1jFjKF15tG4KJ5U_blaIWK9nESZcyBLvHEiiEDLxyYwYveRbamdixQg74cMg00U9qMUmdrFzXqy2tCFWqwM46X85gh88VwcVo3fhO6AhJkIOVdf7C1Gb0w_16vlOFxirUjO3wxfkNfQhpuPREXjIgzUnsV_2dQ2qhiCI-43pMnRKuQxXirlsJysI_WQdOflKCezczU_wpVU2TuMwCK7]--></g></svg>